<svg width="149" height="100" viewBox="0 0 149 100" fill="none" xmlns="http://www.w3.org/2000/svg">
<g filter="url(#filter0_b_1_8)">
<g filter="url(#filter1_d_1_8)">
<path d="M74.5 0L123.644 14.6447L144 50L123.644 85.3553L74.5 100L25.3561 85.3553L5 50L25.3561 14.6447L74.5 0Z" fill="url(#paint0_linear_1_8)"/>
<path d="M25.6899 15.0669L74.5 0.521728L123.31 15.0669L143.423 50L123.31 84.9331L74.5 99.4783L25.6899 84.9331L5.57695 50L25.6899 15.0669Z" stroke="black" stroke-opacity="0.81"/>
</g>
<g filter="url(#filter2_b_1_8)">
<path d="M43.2178 61.899C43.628 61.7814 44.1096 61.7196 44.6627 61.7136C45.2158 61.7075 45.7863 61.7381 46.3743 61.8053C46.9659 61.8854 47.3378 61.9244 47.4898 61.9224C48.1473 61.9419 49.1041 61.7716 50.3601 61.4114C50.4485 61.9132 50.4865 62.36 50.474 62.752C50.4744 63.1402 50.4179 63.4754 50.3047 63.7576C49.3287 63.982 48.4286 64.0598 47.6044 63.9909C47.3772 63.9728 46.9596 63.9192 46.3515 63.83C45.747 63.7537 45.2214 63.7102 44.7745 63.6997C44.3312 63.7019 43.9238 63.7564 43.5521 63.8629C43.1932 63.9658 42.7026 64.1897 42.0802 64.5347C41.4744 64.8887 41.165 65.0676 41.1522 65.0712C40.5769 64.8062 40.2194 64.4302 40.0797 63.9432C40.7586 63.3601 41.3479 62.8998 41.8476 62.5624C42.3638 62.2341 42.8205 62.0129 43.2178 61.899ZM43.3389 59.2011C45.4665 58.591 46.0617 56.6519 45.1245 53.3836C44.1873 50.1153 42.655 48.7862 40.5274 49.3962C39.6046 49.6609 38.8375 50.0334 38.2263 50.5138C37.9895 51.9133 38.1045 53.4269 38.5713 55.0546C39.0343 56.6695 39.638 57.8558 40.3823 58.6133C41.1229 59.358 42.1085 59.5539 43.3389 59.2011ZM39.932 47.3199C42.0724 46.7062 43.7401 46.8383 44.935 47.7162C46.1263 48.5814 47.0527 50.1675 47.7143 52.4745C48.1296 53.9228 48.2984 55.2129 48.2207 56.3449C48.143 57.4768 47.7502 58.4771 47.0423 59.3459C46.3343 60.2147 45.2946 60.8458 43.9232 61.239C41.8341 61.838 40.1481 61.6904 38.8652 60.796C37.5951 59.898 36.6403 58.3339 36.0009 56.1038C34.6484 51.3872 35.9588 48.4592 39.932 47.3199ZM56.7545 46.6574C56.998 46.5875 57.1536 46.5498 57.2214 46.5443C57.4088 47.1979 57.4616 47.7931 57.3797 48.3298C58.1113 51.1716 58.6445 53.2727 58.9791 54.6331C59.5705 54.519 60.1044 54.47 60.5806 54.486L60.928 55.8428C60.216 56.3105 59.578 56.6252 59.0141 56.7869C58.4502 56.9486 58.062 57.0461 57.8496 57.0792C57.6076 56.8157 57.3912 56.5449 57.2004 56.2667C56.3425 57.2895 55.6764 57.8688 55.2021 58.0048C52.9079 58.6627 51.4282 57.8317 50.763 55.5118C50.5829 54.8838 50.1913 53.3247 49.5882 50.8345C48.9089 51.0292 48.2616 51.1178 47.6462 51.1C47.5543 50.7796 47.4669 50.3053 47.3839 49.6772C48.0813 49.2553 49.3464 48.7816 51.1792 48.256C51.4227 48.1862 51.5783 48.1485 51.6461 48.143C51.8262 48.771 51.8844 49.3854 51.8209 49.9862L52.9345 53.8697C53.1697 54.69 53.4257 55.2685 53.7026 55.6052C53.9886 55.9254 54.4136 56.0047 54.9775 55.843C55.5543 55.6776 56.0869 55.3099 56.5754 54.7398L54.8944 49.3129C54.3231 49.449 53.7655 49.5118 53.2215 49.5013C53.1296 49.1809 53.0422 48.7066 52.9592 48.0785C53.6566 47.6566 54.9217 47.1829 56.7545 46.6574ZM62.9974 44.8672C63.2409 44.7974 63.3966 44.7597 63.4643 44.7541C63.6444 45.3822 63.7027 45.9966 63.6392 46.5974C64.3817 49.3805 64.9451 51.466 65.3292 52.8539L66.8784 52.5969C67.029 53.1224 67.0415 53.7222 66.9158 54.3963L62.1287 55.769L61.6525 54.7612C62.3626 54.2386 62.8842 53.8809 63.2174 53.6883L61.2198 47.52C60.4415 47.6599 59.8564 47.7236 59.4645 47.7112C59.3726 47.3908 59.2851 46.9165 59.2021 46.2884C59.8995 45.8665 61.1646 45.3928 62.9974 44.8672ZM61.9555 41.2336C62.2362 41.7773 62.4207 42.203 62.5089 42.5106C62.5935 42.8054 62.6634 43.1459 62.7187 43.5323C62.2391 43.7947 61.8199 43.9773 61.461 44.0802C61.1149 44.1795 60.6865 44.2815 60.1756 44.3864C59.8948 43.8427 59.7122 43.4235 59.6277 43.1287C59.5395 42.8211 59.4677 42.4741 59.4124 42.0877C59.892 41.8253 60.3048 41.6446 60.6509 41.5453C61.0098 41.4424 61.4446 41.3385 61.9555 41.2336ZM74.6279 48.3774C75.0424 49.0492 75.3269 49.6542 75.4812 50.1925C75.6356 50.7308 75.7643 51.2765 75.8674 51.8295L68.408 53.9684C68.0451 53.6702 67.7736 53.2557 67.5936 52.7247L70.5419 44.5764L68.5617 45.1442L68.6845 47.1688C68.5856 47.211 68.3568 47.2836 67.9979 47.3865C67.6518 47.4857 67.2609 47.5493 66.825 47.5772C66.381 46.7058 66.0854 46.0138 65.9384 45.5011C65.7914 44.9885 65.6875 44.5536 65.6267 44.1965L72.6824 42.1733C72.9647 42.4807 73.1886 42.9228 73.354 43.4996L70.5842 51.4719L72.9104 50.8048L72.7876 48.7803C73.5822 48.5524 74.1957 48.4181 74.6279 48.3774ZM78.2424 40.4958C78.486 40.426 78.6416 40.3883 78.7094 40.3827C78.8894 41.0107 78.9477 41.6251 78.8842 42.2259C79.6268 45.009 80.1901 47.0946 80.5742 48.4825L82.1234 48.2255C82.2741 48.751 82.2865 49.3508 82.1608 50.0249L77.3737 51.3975L76.8975 50.3898C77.6076 49.8671 78.1292 49.5095 78.4624 49.3169L76.4648 43.1485C75.6865 43.2885 75.1014 43.3522 74.7095 43.3398C74.6176 43.0193 74.5302 42.5451 74.4471 41.917C75.1445 41.4951 76.4096 41.0213 78.2424 40.4958ZM77.2005 36.8622C77.4813 37.4059 77.6657 37.8315 77.7539 38.1391C77.8385 38.4339 77.9084 38.7745 77.9637 39.1609C77.4841 39.4233 77.0649 39.6059 76.706 39.7088C76.3599 39.808 75.9315 39.9101 75.4206 40.015C75.1399 39.4713 74.9572 39.052 74.8727 38.7573C74.7845 38.4497 74.7127 38.1027 74.6574 37.7163C75.137 37.4539 75.5498 37.2731 75.8959 37.1739C76.2548 37.071 76.6896 36.9671 77.2005 36.8622ZM85.3725 49.3536L84.9441 49.4557C84.8267 49.3367 84.6489 49.1034 84.4104 48.7556C84.172 48.4079 84.0188 48.1397 83.9509 47.9511C83.523 46.7006 82.8222 44.5228 81.8485 41.4175L80.5028 41.8034L80.2462 40.691C80.4822 40.4014 80.7814 40.1145 81.1437 39.8303L81.9953 36.9229C82.5099 36.8309 82.9394 36.8534 83.2839 36.9904L83.7883 38.8223C84.6032 38.6164 85.375 38.4783 86.1038 38.408C86.2509 38.9207 86.2487 39.5177 86.0973 40.1992L84.3094 40.7119C85.0299 43.4181 85.5767 45.446 85.9498 46.7954C86.4771 46.6997 87.2179 46.6468 88.1721 46.6367L88.4395 47.6419C88.2621 47.8454 87.8228 48.1516 87.1217 48.5607C86.4298 48.9533 85.8468 49.2176 85.3725 49.3536ZM90.8402 36.8834C91.0837 36.8136 91.2394 36.7759 91.3071 36.7703C91.4872 37.3984 91.5455 38.0128 91.482 38.6136C92.2245 41.3967 92.7879 43.4822 93.172 44.8701L94.7212 44.6131C94.8718 45.1386 94.8843 45.7384 94.7586 46.4125L89.9715 47.7852L89.4953 46.7774C90.2054 46.2548 90.727 45.8971 91.0602 45.7045L89.0626 39.5362C88.2843 39.6761 87.6992 39.7399 87.3073 39.7274C87.2154 39.407 87.1279 38.9327 87.0449 38.3046C87.7423 37.8827 89.0074 37.409 90.8402 36.8834ZM89.7983 33.2499C90.079 33.7935 90.2635 34.2192 90.3517 34.5268C90.4362 34.8216 90.5062 35.1622 90.5615 35.5485C90.0819 35.8109 89.6626 35.9935 89.3038 36.0964C88.9577 36.1957 88.5293 36.2977 88.0184 36.4026C87.7376 35.8589 87.555 35.4397 87.4705 35.1449C87.3823 34.8373 87.3105 34.4903 87.2552 34.1039C87.7348 33.8416 88.1476 33.6608 88.4937 33.5615C88.8526 33.4586 89.2874 33.3547 89.7983 33.2499ZM99.9995 41.7888L99.8894 38.7203L100.203 35.9673C99.7449 36.0153 99.1588 36.0031 98.4445 35.9305L98.3143 34.8235L103.101 33.4508C103.565 33.9559 103.872 34.4711 104.023 34.9966C103.545 35.2169 103.06 35.4114 102.568 35.5804C102.558 36.5126 102.432 37.9844 102.19 39.9955C101.961 42.0031 101.84 43.4665 101.826 44.3859L99.3461 45.0971L94.018 38.0528L92.4688 38.3098C92.3181 37.7843 92.3057 37.1845 92.4314 36.5104L97.2185 35.1377L97.6947 36.1455C97.239 36.5397 96.8446 36.8331 96.5115 37.0257L98.1344 39.2027L99.6342 41.8936L99.9995 41.7888ZM111.558 39.8062C111.993 39.6812 112.791 39.1264 113.952 38.1418C114.351 38.4711 114.699 38.8847 114.994 39.3826C114.414 40.0205 113.819 40.5586 113.21 40.9969C112.609 41.4187 112.168 41.67 111.886 41.7509C110.336 42.1956 109.033 42.1043 107.98 41.4771C106.939 40.8463 106.192 39.7426 105.74 38.1661C105.284 36.5768 105.316 35.1876 105.835 33.9985C106.35 32.7966 107.39 31.9714 108.954 31.523C110.197 31.1666 111.261 31.2983 112.146 31.9184C113.031 32.5384 113.66 33.4956 114.031 34.7901C114.108 35.0593 114.042 35.411 113.834 35.8453L108.27 37.3368C108.589 38.3548 109.006 39.0815 109.519 39.5169C110.032 39.9523 110.712 40.0487 111.558 39.8062ZM109.238 33.1684C108.751 33.308 108.324 33.5346 107.956 33.8481C107.837 34.5479 107.815 35.1715 107.889 35.7191C108.878 35.3939 110.005 35.0431 111.27 34.6664C110.838 33.4031 110.161 32.9037 109.238 33.1684Z" fill="url(#paint1_linear_1_8)"/>
</g>
</g>
<defs>
<filter id="filter0_b_1_8" x="1" y="-4" width="147" height="108" filterUnits="userSpaceOnUse" color-interpolation-filters="sRGB">
<feFlood flood-opacity="0" result="BackgroundImageFix"/>
<feGaussianBlur in="BackgroundImageFix" stdDeviation="2"/>
<feComposite in2="SourceAlpha" operator="in" result="effect1_backgroundBlur_1_8"/>
<feBlend mode="normal" in="SourceGraphic" in2="effect1_backgroundBlur_1_8" result="shape"/>
</filter>
<filter id="filter1_d_1_8" x="0" y="0" width="149" height="115" filterUnits="userSpaceOnUse" color-interpolation-filters="sRGB">
<feFlood flood-opacity="0" result="BackgroundImageFix"/>
<feColorMatrix in="SourceAlpha" type="matrix" values="0 0 0 0 0 0 0 0 0 0 0 0 0 0 0 0 0 0 127 0" result="hardAlpha"/>
<feOffset dy="10"/>
<feGaussianBlur stdDeviation="2.5"/>
<feComposite in2="hardAlpha" operator="out"/>
<feColorMatrix type="matrix" values="0 0 0 0 0 0 0 0 0 0 0 0 0 0 0 0 0 0 0.3 0"/>
<feBlend mode="normal" in2="BackgroundImageFix" result="effect1_dropShadow_1_8"/>
<feBlend mode="normal" in="SourceGraphic" in2="effect1_dropShadow_1_8" result="shape"/>
</filter>
<filter id="filter2_b_1_8" x="23.9722" y="16.7348" width="102.892" height="60.2313" filterUnits="userSpaceOnUse" color-interpolation-filters="sRGB">
<feFlood flood-opacity="0" result="BackgroundImageFix"/>
<feGaussianBlur in="BackgroundImageFix" stdDeviation="5"/>
<feComposite in2="SourceAlpha" operator="in" result="effect1_backgroundBlur_1_8"/>
<feBlend mode="normal" in="SourceGraphic" in2="effect1_backgroundBlur_1_8" result="shape"/>
</filter>
<linearGradient id="paint0_linear_1_8" x1="74.5" y1="0" x2="74.5" y2="100" gradientUnits="userSpaceOnUse">
<stop stop-color="#E1D2EC"/>
<stop offset="1" stop-color="#9500B4"/>
</linearGradient>
<linearGradient id="paint1_linear_1_8" x1="114.407" y1="33.4964" x2="35.5833" y2="56.0987" gradientUnits="userSpaceOnUse">
<stop stop-color="#440179"/>
<stop offset="0.487151" stop-color="#9500B4"/>
<stop offset="1" stop-color="#EA00F2"/>
<stop offset="1" stop-color="#F700FC"/>
</linearGradient>
</defs>
</svg>
